<?xml version="1.0" encoding="utf-8"?>
<!-- Generator: Adobe Illustrator 16.0.0, SVG Export Plug-In . SVG Version: 6.00 Build 0)  -->
<!DOCTYPE svg PUBLIC "-//W3C//DTD SVG 1.1//EN" "http://www.w3.org/Graphics/SVG/1.1/DTD/svg11.dtd">
<svg version="1.1" id="Layer_1" xmlns="http://www.w3.org/2000/svg" xmlns:xlink="http://www.w3.org/1999/xlink" x="0px" y="0px"
	 width="63.366px" height="53.791px" viewBox="0 0 63.366 53.791" enable-background="new 0 0 63.366 53.791" xml:space="preserve">
<path fill="#D7DBE2" d="M9.421,25.071l11.852-5.773l10.866-8.054l4.482-1.824h3.646L49.842,0h3.038l4.711,4.71v7.827h5.775
	l-5.471,8.583l-5.623,6.437l5.623,9.975l-5.623-1.367l3.647,1.367h-3.04l-15.042,7.901L35.709,50.6h-5.774l-1.976,3.191
	l-8.813-4.558l-3.19,2.279l-1.368-3.798c0,0-1.672,3.493-1.521,2.886C13.22,49.993,8.51,34.188,8.51,34.188L0,36.925l12.764-9.727
	L9.421,25.071z"/>
<path fill="#C3C8D0" d="M6.589,32.269l-0.829,0.265L0,36.925l7.275-2.339C6.862,33.186,6.589,32.269,6.589,32.269"/>
<polygon fill="#C3C8D0" points="55.67,10.616 57.591,10.616 57.591,4.71 55.67,2.79 "/>
<polygon fill="#C3C8D0" points="10.345,25.66 10.844,25.28 10.042,24.768 9.421,25.071 "/>
<path fill="#C3C8D0" d="M12.668,45.793c0,0-0.226,0.472-0.504,1.04c0.564,2.058,0.949,3.587,0.904,3.767
	c-0.083,0.332,0.378-0.559,0.812-1.437L12.668,45.793z"/>
<polygon fill="#C3C8D0" points="63.366,12.537 60.221,12.537 55.975,19.201 50.352,25.638 55.975,35.612 50.352,34.245 
	53.999,35.612 50.96,35.612 35.917,43.515 33.79,48.681 28.015,48.681 26.039,51.871 17.227,47.312 15.012,48.894 15.957,51.512 
	19.146,49.233 27.959,53.791 29.935,50.6 35.71,50.6 37.837,45.434 52.881,37.532 55.919,37.532 52.272,36.165 57.895,37.532 
	52.272,27.558 57.895,21.121 "/>
<polygon fill="#232323" points="57.591,4.71 55.008,12.612 57.591,12.537 "/>
<polygon fill="#232323" points="37.837,11.245 36.012,13.524 39.508,12.383 "/>
<polygon fill="#232323" points="48.692,1.13 51.057,3.039 54.011,1.13 52.88,0 49.842,0 "/>
<polygon fill="#C3C8D0" points="23.878,20.839 15.013,34.598 28.22,30.39 "/>
<polygon fill="#A9B3BF" points="24.022,21.844 27.946,30.477 28.219,30.39 23.879,20.839 15.012,34.598 16.007,34.279 "/>
<polygon fill="#AAB2BC" points="23.878,20.839 22.957,27.718 28.22,30.39 "/>
</svg>
